<?xml version="1.0" encoding="UTF-8"?>
<!DOCTYPE svg PUBLIC "-//W3C//DTD SVG 1.1//EN" "http://www.w3.org/Graphics/SVG/1.1/DTD/svg11.dtd">
<!-- Creator: CorelDRAW -->
<svg xmlns="http://www.w3.org/2000/svg" xml:space="preserve" width="3881px" height="1103px" version="1.1" style="shape-rendering:geometricPrecision; text-rendering:geometricPrecision; image-rendering:optimizeQuality; fill-rule:evenodd; clip-rule:evenodd"
viewBox="0 0 3845.22 1093.01"
 xmlns:xlink="http://www.w3.org/1999/xlink"
 xmlns:xodm="http://www.corel.com/coreldraw/odm/2003">
 <defs>
  <style type="text/css">
   <![CDATA[
    .fil1 {fill:#A9ABAE}
    .fil2 {fill:#00A5C5}
    .fil3 {fill:#D39519}
    .fil0 {fill:#F8911E;fill-rule:nonzero}
   ]]>
  </style>
 </defs>
 <g id="Capa_x0020_1">
  <metadata id="CorelCorpID_0Corel-Layer"/>
  <polygon class="fil0" points="1024.27,1001.99 964.94,1001.99 964.94,1022.81 1019.03,1022.81 1019.03,1049.2 964.94,1049.2 964.94,1089.03 933.96,1089.03 933.96,974.3 1024.27,974.3 "/>
  <polygon class="fil0" points="1072.76,1089.03 1041.79,1089.03 1041.79,974.3 1072.76,974.3 "/>
  <polygon class="fil0" points="1185.84,1000.52 1152.57,1000.52 1152.57,1089.03 1121.59,1089.03 1121.59,1000.52 1088.32,1000.52 1088.32,974.3 1185.84,974.3 "/>
  <polygon class="fil0" points="1308.91,1089.03 1276.95,1089.03 1230.73,1025.1 1230.73,1089.03 1200.41,1089.03 1200.41,974.3 1232.2,974.3 1278.59,1038.21 1278.59,974.3 1308.91,974.3 "/>
  <polygon class="fil0" points="1425.42,1001.99 1362.31,1001.99 1362.31,1017.73 1420.99,1017.73 1420.99,1044.12 1362.31,1044.12 1362.31,1061.32 1426.4,1061.32 1426.4,1089.03 1331.34,1089.03 1331.34,974.3 1425.42,974.3 "/>
  <path class="fil0" d="M1539.8 985.44l-12.95 23.93c-12.95,-6.73 -28.19,-10.65 -39.83,-10.65 -6.39,0 -10.82,2.46 -10.82,7.53 0,1.81 1.15,3.44 3.45,4.6 2.29,1.15 7.7,2.78 16.39,4.91 4.42,1.15 8.19,2.13 11.14,3.11 5.9,1.81 13.93,4.6 18.35,7.22 4.6,2.45 9.68,6.39 12.3,10.49 2.63,4.1 4.26,9.67 4.26,16.38 0,24.1 -18.03,37.7 -48.02,37.7 -21.47,0 -40.32,-5.23 -56.22,-15.9l13.77 -23.11c14.75,8.36 30.16,12.62 46.06,12.62 6.71,0 11.79,-2.61 11.79,-7.36 0,-3.12 -1.14,-5.42 -3.6,-6.57 -2.3,-1.14 -8.52,-2.95 -18.52,-5.4l-10.82 -2.79c-5.74,-1.47 -13.28,-4.1 -17.7,-6.56 -4.43,-2.45 -9.34,-6.06 -11.97,-9.99 -2.46,-3.94 -4.09,-9.18 -4.09,-15.57 0,-25.74 20.98,-37.38 47.69,-37.38 18.85,0 35.24,4.26 49.34,12.79z"/>
  <path class="fil0" d="M1655.98 985.44l-12.95 23.93c-12.95,-6.73 -28.19,-10.65 -39.83,-10.65 -6.39,0 -10.82,2.46 -10.82,7.53 0,1.81 1.15,3.44 3.45,4.6 2.29,1.15 7.7,2.78 16.39,4.91 4.42,1.15 8.19,2.13 11.14,3.11 5.9,1.81 13.93,4.6 18.36,7.22 4.59,2.45 9.67,6.39 12.29,10.49 2.63,4.1 4.27,9.67 4.27,16.38 0,24.1 -18.03,37.7 -48.03,37.7 -21.47,0 -40.32,-5.23 -56.22,-15.9l13.77 -23.11c14.75,8.36 30.16,12.62 46.06,12.62 6.71,0 11.8,-2.61 11.8,-7.36 0,-3.12 -1.15,-5.42 -3.61,-6.57 -2.29,-1.14 -8.52,-2.95 -18.52,-5.4l-10.82 -2.79c-5.73,-1.47 -13.27,-4.1 -17.7,-6.56 -4.42,-2.45 -9.34,-6.06 -11.96,-9.99 -2.46,-3.94 -4.1,-9.18 -4.1,-15.57 0,-25.74 20.98,-37.38 47.69,-37.38 18.85,0 35.24,4.26 49.34,12.79z"/>
  <path class="fil0" d="M1747.57 983.8c-4.75,3.94 -7.22,9.35 -7.22,16.06 0,3.78 0.66,6.73 1.97,9.17 1.31,2.31 3.93,5.75 7.87,10.33l5.41 6.07 14.42 -7.04c9.68,-4.59 14.92,-10.17 14.92,-21.8 0,-5.58 -2.13,-10.17 -6.23,-13.61 -4.1,-3.44 -8.85,-5.24 -14.59,-5.24 -6.23,0 -11.8,1.96 -16.55,6.06zm6.39 48.68l-6.23 3.11c-15.4,7.38 -22.94,16.4 -22.46,26.89 0.5,7.86 3.94,14.09 10.5,18.51 6.72,4.44 14.91,6.57 24.58,6.23 11.97,-0.66 21.97,-5.08 30.16,-13.11l-36.55 -41.63zm28.85 -53.1c5.25,4.42 7.86,9.99 7.86,17.04 0,13.77 -6.72,20.98 -17.86,26.39l-13.44 6.72 35.4 40.32c6.72,-7.21 11.97,-16.88 16.07,-29.17l5.07 2.13c-4.09,12.94 -9.83,23.27 -17.21,31.3l11.48 12.79 -5.08 3.92 -10.49 -12.12c-9.35,8.86 -20.81,13.6 -34.26,14.25 -11.31,0.5 -20.98,-2.13 -29.01,-7.52 -8.03,-5.41 -12.29,-12.96 -12.78,-22.47 -0.49,-12.45 8.03,-23.11 25.73,-31.96l5.9 -2.94 -4.92 -5.41c-4.09,-4.92 -7.05,-8.85 -8.52,-11.64 -1.47,-2.95 -2.29,-6.55 -2.29,-10.99 0,-17.86 15.57,-27.37 29.83,-27.37 7.04,0 13.28,2.3 18.52,6.73z"/>
  <polygon class="fil0" points="1970.6,1001.99 1911.27,1001.99 1911.27,1022.81 1965.35,1022.81 1965.35,1049.2 1911.27,1049.2 1911.27,1089.03 1880.29,1089.03 1880.29,974.3 1970.6,974.3 "/>
  <polygon class="fil0" points="2019.09,1089.03 1988.12,1089.03 1988.12,974.3 2019.09,974.3 "/>
  <path class="fil0" d="M2147.74 989.37l-20.16 21.14c-7.2,-6.39 -15.56,-9.5 -24.91,-9.5 -8.68,0.16 -16.23,2.95 -22.29,8.52 -6.07,5.57 -9.01,12.95 -9.01,22.13 0,8.37 2.78,15.57 8.19,21.3 5.57,5.74 12.62,8.7 21.15,8.7 7.86,0 15.07,-1.97 21.47,-5.75l0 -10.81 -19.51 0 0 -21.96 49.01 0 0 50.15c-14.75,11.64 -31.8,17.37 -50.97,17.37 -33.28,0.82 -62.29,-27.04 -61.47,-59 0,-37.7 30.65,-59.49 63.43,-59.01 17.37,0.17 32.45,5.75 45.07,16.72z"/>
  <polygon class="fil0" points="2282.61,1089.03 2251.79,1089.03 2251.79,1045.1 2205.08,1045.1 2205.08,1089.03 2174.1,1089.03 2174.1,974.3 2205.08,974.3 2205.08,1017.4 2251.79,1017.4 2251.79,974.3 2282.61,974.3 "/>
  <polygon class="fil0" points="2395.83,1000.52 2362.56,1000.52 2362.56,1089.03 2331.58,1089.03 2331.58,1000.52 2298.31,1000.52 2298.31,974.3 2395.83,974.3 "/>
  <path class="fil0" d="M2561.51 993.63l-5.9 3.78c-9.83,-11.64 -24.09,-18.2 -39.83,-18.2 -28.68,-0.65 -53.27,24.09 -52.62,52.45 0,14.59 5.09,26.88 15.25,37.21 10.33,10.15 22.78,15.24 37.37,15.24 15.74,0 30,-6.56 39.83,-18.19l5.9 3.77c-10.98,12.62 -27.37,20.97 -45.73,20.97 -32.62,0.82 -60.64,-27.04 -59.99,-59 -0.65,-31.96 27.37,-59.67 59.99,-59.01 17.87,0 34.58,7.88 45.73,20.98z"/>
  <polygon class="fil0" points="2599.99,1082.64 2667.52,1082.64 2667.52,1089.03 2592.95,1089.03 2592.95,974.3 2599.99,974.3 "/>
  <path class="fil0" d="M2785.51 974.3l0 64.41c0,16.54 -4.42,29.34 -13.43,38.36 -9.02,9.01 -20.82,13.59 -35.73,13.59 -14.92,0 -26.72,-4.58 -35.73,-13.59 -9.02,-9.02 -13.45,-21.82 -13.45,-38.36l0 -64.41 7.05 0 0 64.41c0,14.42 3.77,25.56 11.47,33.6 7.71,7.87 18.03,11.8 30.66,11.8 12.61,0 22.78,-3.93 30.48,-11.8 7.7,-8.04 11.64,-19.18 11.64,-33.6l0 -64.41 7.04 0z"/>
  <path class="fil0" d="M2833.18 1083.12l45.73 0c25.4,0 33.44,-12.78 33.44,-25.4 0,-12.78 -8.04,-25.4 -33.44,-25.4l-45.73 0 0 50.8zm0 -56.05l41.14 0c20.32,0 31.64,-8.2 31.64,-23.43 0.16,-15.25 -11.15,-23.45 -31.64,-23.45l-41.14 0 0 46.88zm-7.05 -52.77l49.66 0c24.1,0 37.54,9.83 37.54,28.35 0,13.77 -7.7,22.62 -21.96,26.38 21.3,3.11 28.19,16.39 28.19,29.51 0,15.24 -9.34,30.49 -39.34,30.49l-54.09 0 0 -114.73z"/>
  <path class="fil1" d="M1029.06 419.43c62.8,0 122.37,3.81 181.19,-1.19 48.65,-4.14 75.92,-39.76 77.09,-85.1 1.26,-48.98 -22.15,-86.54 -71.87,-91.91 -61.09,-6.59 -123.43,-1.57 -186.41,-1.57l0 179.77zm322.6 145.06c62.63,91.71 123.56,180.92 186.32,272.81 -7.93,1.39 -13.54,3.21 -19.15,3.22 -70.66,0.11 -141.33,-0.75 -211.97,0.37 -19,0.3 -30.36,-6.19 -40.36,-21.59 -41.45,-63.78 -84.85,-126.31 -125.16,-190.79 -14.49,-23.18 -30.47,-33.96 -57.71,-30.62 -17.1,2.09 -34.65,0.39 -55.27,0.39l0 239.59 -225.81 0 0 -28.94c-0.01,-245.94 0.26,-491.86 -0.49,-737.79 -0.07,-22.93 4.24,-32.38 29.79,-31.9 139.39,2.63 278.93,0.68 418.19,6.15 81.17,3.18 152.38,36 207.54,99.41 77.86,89.52 89.27,296.2 -58.51,391.09 -14.51,9.32 -29.54,17.85 -47.41,28.6z"/>
  <path class="fil1" d="M3001.05 193.82c-55.7,43.25 -109.83,85.26 -169.09,131.26 -14.43,-16.19 -26.3,-32.55 -41.1,-45.61 -85.97,-75.87 -207.3,-65.03 -277.05,23.99 -78.87,100.63 -45.8,272.87 63.19,329.14 77.15,39.82 169.54,21.12 235.36,-48.28 29.3,-30.89 21.66,-33.63 61.1,-5.63 44.06,31.27 87.65,63.2 131.33,94.75 -80.47,134.16 -243.76,209.66 -436.18,174.75 -178.51,-32.39 -315.34,-186.25 -328.31,-368.63 -14.04,-197.51 97.92,-375.98 277.12,-431.06 186.66,-57.37 377.26,-11.53 483.63,145.32z"/>
  <path class="fil1" d="M767.89 675c-76.78,110.88 -179.54,171.13 -310.12,180.19 -148.21,10.28 -274.23,-35.33 -369.96,-153.9 -124.35,-154.02 -115.83,-392.04 20.46,-541.7 145.53,-159.81 412.61,-181.58 579.94,-46.28 23.35,18.88 43.37,42.12 63.41,64.69 3.99,4.5 4.48,19.37 0.83,22.31 -51.27,41.2 -103.53,81.16 -154.37,120.52 -27,-22.58 -49.52,-46.05 -76.22,-62.93 -101.26,-63.96 -233.33,-17.84 -273.72,94.78 -25.06,69.89 -23.62,140.45 13.56,204.9 67.13,116.35 214.52,128.33 311.17,28.12 29.58,-30.68 29.46,-30.52 64.45,-5.04 42.9,31.24 86.03,62.18 130.57,94.34z"/>
  <path class="fil2" d="M1613.24 707.74c16.4,-24.02 32.91,-50.3 52.1,-74.44 3.6,-4.52 20.13,-4.03 26.96,0.18 31.95,19.7 63.28,40.58 93.46,62.9 20.89,15.45 37.35,14.92 58.65,-0.81 41.24,-30.46 85.26,-57.15 127.25,-86.66 14.49,-10.19 24.84,-9.34 38.96,0.66 44.13,31.21 89.5,60.68 133.88,91.55 6.92,4.82 15.69,13.26 15.96,20.3 1.54,39.89 0.74,79.87 0.74,125.53 -39.78,-26.59 -75.63,-49.78 -110.67,-74.15 -57.76,-40.15 -57.69,-40.67 -116.24,-2.44 -33.01,21.55 -64.91,44.86 -98.55,65.34 -9.17,5.57 -26.4,9.25 -33.88,4.43 -62.39,-40.17 -123.37,-82.53 -184.7,-124.34 -1.28,-0.89 -1.61,-3.16 -3.92,-8.05z"/>
  <path class="fil2" d="M1610.64 168.74c21.83,-31.8 41.66,-60.69 62.96,-91.7 41.97,28.79 80.79,54.61 118.64,81.78 15.83,11.37 28.22,11.25 44.26,-0.25 43.9,-31.51 89.22,-61.04 133.47,-92.08 12.63,-8.87 23.31,-12.21 37.17,-2.41 44.91,31.72 91,61.81 135.08,94.64 9.95,7.42 18.24,22.97 19.22,35.41 2.62,33.61 0.89,67.56 0.89,106.16 -9.8,-4.31 -16.36,-6.15 -21.75,-9.74 -42.73,-28.41 -85.81,-56.36 -127.56,-86.18 -17.23,-12.32 -30.16,-11.15 -46.78,0.58 -43.4,30.65 -87.48,60.39 -132.27,88.97 -8.59,5.47 -25.15,9.35 -32.06,4.84 -63.48,-41.49 -125.64,-84.99 -191.27,-130.02z"/>
  <path class="fil2" d="M1672.69 348.42c39.93,26.9 77.64,50.86 113.7,77.11 21.42,15.6 38.13,13.86 59.1,-1.48 43.39,-31.75 88.66,-60.91 139.52,-95.45 0,47.37 0.68,87.93 -0.73,128.42 -0.21,6.08 -9.37,13.05 -15.84,17.51 -45.99,31.74 -91.91,63.63 -139.05,93.57 -7.4,4.7 -23.4,3.73 -31.14,-1.26 -57.71,-37.2 -114.55,-75.77 -170.97,-114.91 -5.44,-3.78 -10.81,-17.09 -8.31,-21.31 16.13,-27.29 34.44,-53.28 53.72,-82.2z"/>
  <path class="fil3" d="M3284.15 784.04c-10.28,-7.6 -16,-11.08 -21.09,-15.72 -60.29,-54.92 -120.83,-109.39 -180.31,-165.77 -8.14,-7.72 -15.18,-24.98 -15.46,-38.1 -2.31,-105.52 -2.54,-211.12 -4.27,-316.68 -0.3,-18.68 3.75,-28.01 17.6,-34.78 60.45,-29.57 120.24,-61.51 180.8,-90.66 8.73,-4.2 22.7,-2.38 30.37,4.29 47.73,41.48 94.61,84.68 141.04,128.62 6.63,6.28 12.88,19.57 13.18,29.9 1.84,63.21 1.91,126.5 2.59,191.8 -39.77,18.24 -79.22,36.32 -123.06,56.43 -0.58,-45 -1.13,-86.56 -1.65,-128.12 -0.59,-46.71 -3.89,-52.61 -44.19,-74.13 1.47,150.01 2.93,298.03 4.45,452.92z"/>
  <path class="fil3" d="M3841.08 414.95c-0.99,57.12 -1.37,109.76 -3.45,162.32 -0.28,6.84 -7.98,17.12 -14.5,19.44 -159.89,56.84 -320.08,112.83 -480.26,168.85 -1.77,0.61 -4.09,-0.35 -9.25,-0.91 -0.72,-51.95 -2.03,-104.27 -1.45,-156.57 0.07,-6.68 8.65,-16.9 15.47,-19.33 162.77,-57.91 325.83,-114.97 493.44,-173.8z"/>
  <path class="fil3" d="M3336.4 828.97c169.59,-59.58 332.29,-116.74 500.04,-175.68 -1.01,51.83 -1.27,99.75 -3.63,147.56 -0.31,6.5 -9.94,15.63 -17.16,18.23 -103.22,37.06 -206.73,73.35 -310.35,109.3 -7.39,2.56 -18.5,4.65 -23.91,1.04 -47,-31.42 -93.09,-64.2 -144.99,-100.45z"/>
  <path class="fil3" d="M3548.6 456.9c-0.92,-62.82 -1.8,-122.75 -2.73,-185.84 46.4,-16.31 92.87,-32.65 139.34,-49 38.81,-13.67 77.49,-27.71 116.45,-40.92 28.59,-9.69 43.66,0.25 43.56,29.21 -0.15,42.18 -0.76,84.4 -3.14,126.5 -0.44,7.79 -8.6,19.33 -15.8,21.95 -91.14,33.06 -182.76,64.8 -277.68,98.1z"/>
  <path class="fil3" d="M3333.42 87.66c78.55,-30.52 150.86,-58.79 223.39,-86.43 5.12,-1.95 13.42,-1.63 17.72,1.33 61.23,42.04 122.03,84.73 188.78,131.34 -81.97,28.79 -157.01,55.47 -232.44,81.03 -6.26,2.12 -16.43,-1.39 -22.53,-5.57 -56.48,-38.68 -112.47,-78.08 -174.92,-121.7z"/>
 </g>
</svg>
